# Blender v3.5.0 OBJ File: ''
# www.blender.org
mtllib warp.mtl
o torus_トーラス.002
v -1.100000 0.500000 0.000000
v -1.000000 0.600000 0.000000
v -0.900000 0.500000 0.000000
v -1.000000 0.400000 0.000000
v -0.000000 0.500000 1.100000
v -0.000000 0.600000 1.000000
v -0.000000 0.500000 0.900000
v -0.000000 0.400000 1.000000
v 1.100000 0.500000 0.000000
v 1.000000 0.600000 0.000000
v 0.900000 0.500000 0.000000
v 1.000000 0.400000 0.000000
v -0.000000 0.500000 -1.100000
v -0.000000 0.600000 -1.000000
v -0.000000 0.500000 -0.900000
v -0.000000 0.400000 -1.000000
v -0.777817 0.000000 0.777817
v -0.707107 0.100000 0.707107
v -0.636396 0.000000 0.636396
v -0.707107 -0.100000 0.707107
v 0.777817 0.000000 0.777818
v 0.707107 0.100000 0.707107
v 0.636396 0.000000 0.636396
v 0.707107 -0.100000 0.707107
v 0.777818 0.000000 -0.777817
v 0.707107 0.100000 -0.707107
v 0.636396 0.000000 -0.636396
v 0.707107 -0.100000 -0.707107
v -0.777818 0.000000 -0.777817
v -0.707107 0.100000 -0.707107
v -0.636396 0.000000 -0.636396
v -0.707107 -0.100000 -0.707107
v -1.100000 -0.500000 0.000000
v -1.000000 -0.400000 0.000000
v -0.900000 -0.500000 0.000000
v -1.000000 -0.600000 0.000000
v -0.000000 -0.500000 1.100000
v -0.000000 -0.400000 1.000000
v -0.000000 -0.500000 0.900000
v -0.000000 -0.600000 1.000000
v 1.100000 -0.500000 0.000000
v 1.000000 -0.400000 0.000000
v 0.900000 -0.500000 0.000000
v 1.000000 -0.600000 0.000000
v -0.000000 -0.500000 -1.100000
v -0.000000 -0.400000 -1.000000
v -0.000000 -0.500000 -0.900000
v -0.000000 -0.600000 -1.000000
vt 0.500000 0.500000
vt 0.750000 0.750000
vt 0.500000 0.750000
vt 0.750000 1.000000
vt 0.500000 1.000000
vt 0.750000 0.000000
vt 0.500000 0.250000
vt 0.500000 0.000000
vt 0.750000 0.250000
vt 1.000000 0.500000
vt 0.750000 0.500000
vt 1.000000 1.000000
vt 1.000000 0.000000
vt 1.000000 0.250000
vt 0.250000 0.500000
vt 0.000000 0.750000
vt 0.000000 0.500000
vt 0.250000 0.750000
vt 0.000000 1.000000
vt 0.250000 0.000000
vt 0.000000 0.250000
vt 0.000000 0.000000
vt 0.250000 0.250000
vt 0.250000 1.000000
vt 0.500000 0.500000
vt 0.750000 0.750000
vt 0.500000 0.750000
vt 0.500000 1.000000
vt 0.500000 0.000000
vt 0.750000 0.250000
vt 0.500000 0.250000
vt 1.000000 0.500000
vt 0.750000 0.500000
vt 1.000000 1.000000
vt 0.750000 1.000000
vt 0.750000 0.000000
vt 1.000000 0.250000
vt 0.000000 0.500000
vt 0.250000 0.750000
vt 0.000000 0.750000
vt 0.000000 1.000000
vt 0.250000 0.000000
vt 0.000000 0.250000
vt 0.000000 0.000000
vt 0.250000 0.250000
vt 0.250000 0.500000
vt 0.250000 1.000000
vt 0.750000 0.500000
vt 0.500000 0.750000
vt 0.500000 0.500000
vt 0.750000 0.750000
vt 0.500000 1.000000
vt 0.500000 0.000000
vt 0.750000 0.250000
vt 0.500000 0.250000
vt 1.000000 0.750000
vt 0.750000 1.000000
vt 1.000000 0.000000
vt 0.750000 0.000000
vt 1.000000 0.250000
vt 0.250000 0.500000
vt 0.000000 0.750000
vt 0.000000 0.500000
vt 0.250000 0.750000
vt 0.000000 1.000000
vt 0.250000 0.000000
vt 0.000000 0.250000
vt 0.000000 0.000000
vt 0.250000 0.250000
vt 0.250000 1.000000
vt 1.000000 0.750000
vt 1.000000 0.750000
vt 1.000000 0.000000
vt 1.000000 0.500000
vt 1.000000 1.000000
vn -0.5774 0.5774 0.5774
vn 0.5774 0.5774 -0.5773
vn 0.5773 -0.5774 -0.5774
vn -0.5774 -0.5774 0.5773
vn 0.5774 0.5774 0.5774
vn -0.5774 0.5774 -0.5774
vn -0.5773 -0.5774 -0.5774
vn 0.5774 -0.5774 0.5774
vn 0.5774 0.5774 -0.5774
vn -0.5774 0.5773 0.5774
vn -0.5774 -0.5774 0.5774
vn 0.5774 -0.5774 -0.5774
vn -0.5774 -0.5774 -0.5774
vn 0.0000 0.5774 0.8165
vn 0.0000 0.5774 -0.8165
vn 0.0000 -0.5774 -0.8165
vn 0.0000 -0.5774 0.8165
vn 0.8165 0.5773 0.0000
vn -0.8165 0.5773 -0.0000
vn -0.8165 -0.5774 -0.0000
vn 0.8165 -0.5774 0.0000
vn 0.8165 0.5774 -0.0000
vn -0.8165 -0.5773 0.0000
vn 0.5774 -0.5774 -0.5773
vn 0.5774 0.5773 0.5774
vn 0.5774 -0.5773 0.5774
vn -0.5774 -0.5774 -0.5773
vn 0.5774 0.5774 0.5773
vn 0.5774 -0.5774 0.5773
vn -0.8165 0.5774 -0.0000
vn 0.8165 -0.5773 0.0000
usemtl マテリアル
s off
f 1/1/1 6/2/1 2/3/1
f 2/3/2 7/4/2 3/5/2
f 7/6/3 4/7/3 3/8/3
f 8/9/4 1/1/4 4/7/4
f 9/10/5 6/2/5 5/11/5
f 6/2/6 11/12/6 7/4/6
f 11/13/7 8/9/7 7/6/7
f 12/14/8 5/11/8 8/9/8
f 13/15/9 10/16/9 9/17/9
f 14/18/10 11/19/10 10/16/10
f 15/20/11 12/21/11 11/22/11
f 16/23/12 9/17/12 12/21/12
f 13/15/6 2/3/6 14/18/6
f 2/3/5 15/24/5 14/18/5
f 3/8/8 16/23/8 15/20/8
f 4/7/13 13/15/13 16/23/13
f 17/25/14 22/26/14 18/27/14
f 22/26/15 19/28/15 18/27/15
f 19/29/16 24/30/16 20/31/16
f 24/30/17 17/25/17 20/31/17
f 25/32/18 22/26/18 21/33/18
f 22/26/19 27/34/19 23/35/19
f 23/36/20 28/37/20 24/30/20
f 28/37/21 21/33/21 24/30/21
f 25/38/15 30/39/15 26/40/15
f 30/39/14 27/41/14 26/40/14
f 31/42/17 28/43/17 27/44/17
f 32/45/16 25/38/16 28/43/16
f 17/25/19 30/39/19 29/46/19
f 18/27/22 31/47/22 30/39/22
f 19/29/21 32/45/21 31/42/21
f 32/45/23 17/25/23 29/46/23
f 37/48/1 34/49/1 33/50/1
f 38/51/9 35/52/9 34/49/9
f 35/53/24 40/54/24 36/55/24
f 40/54/11 33/50/11 36/55/11
f 37/48/25 42/56/25 38/51/25
f 42/56/6 39/57/6 38/51/6
f 43/58/13 40/54/13 39/59/13
f 44/60/26 37/48/26 40/54/26
f 45/61/9 42/62/9 41/63/9
f 46/64/1 43/65/1 42/62/1
f 47/66/11 44/67/11 43/68/11
f 48/69/12 41/63/12 44/67/12
f 45/61/6 34/49/6 46/64/6
f 34/49/5 47/70/5 46/64/5
f 35/53/8 48/69/8 47/66/8
f 36/55/13 45/61/13 48/69/13
f 1/1/1 5/11/1 6/2/1
f 2/3/9 6/2/9 7/4/9
f 7/6/12 8/9/12 4/7/12
f 8/9/11 5/11/11 1/1/11
f 9/10/25 10/71/25 6/2/25
f 6/2/6 10/71/6 11/12/6
f 11/13/27 12/14/27 8/9/27
f 12/14/8 9/10/8 5/11/8
f 13/15/9 14/18/9 10/16/9
f 14/18/1 15/24/1 11/19/1
f 15/20/11 16/23/11 12/21/11
f 16/23/12 13/15/12 9/17/12
f 13/15/6 1/1/6 2/3/6
f 2/3/28 3/5/28 15/24/28
f 3/8/29 4/7/29 16/23/29
f 4/7/13 1/1/13 13/15/13
f 17/25/14 21/33/14 22/26/14
f 22/26/15 23/35/15 19/28/15
f 19/29/16 23/36/16 24/30/16
f 24/30/17 21/33/17 17/25/17
f 25/32/22 26/72/22 22/26/22
f 22/26/30 26/72/30 27/34/30
f 23/36/23 27/73/23 28/37/23
f 28/37/31 25/32/31 21/33/31
f 25/38/15 29/46/15 30/39/15
f 30/39/14 31/47/14 27/41/14
f 31/42/17 32/45/17 28/43/17
f 32/45/16 29/46/16 25/38/16
f 17/25/30 18/27/30 30/39/30
f 18/27/22 19/28/22 31/47/22
f 19/29/21 20/31/21 32/45/21
f 32/45/20 20/31/20 17/25/20
f 37/48/1 38/51/1 34/49/1
f 38/51/9 39/57/9 35/52/9
f 35/53/12 39/59/12 40/54/12
f 40/54/11 37/48/11 33/50/11
f 37/48/5 41/74/5 42/56/5
f 42/56/6 43/75/6 39/57/6
f 43/58/13 44/60/13 40/54/13
f 44/60/8 41/74/8 37/48/8
f 45/61/9 46/64/9 42/62/9
f 46/64/1 47/70/1 43/65/1
f 47/66/11 48/69/11 44/67/11
f 48/69/12 45/61/12 41/63/12
f 45/61/6 33/50/6 34/49/6
f 34/49/5 35/52/5 47/70/5
f 35/53/29 36/55/29 48/69/29
f 36/55/13 33/50/13 45/61/13
