{
	"asset":{
		"generator":"Khronos glTF Blender I/O v3.5.30",
		"version":"2.0"
	},
	"scene":0,
	"scenes":[
		{
			"name":"Scene",
			"nodes":[
				0
			]
		}
	],
	"nodes":[
		{
			"mesh":0,
			"name":"torus"
		}
	],
	"animations":[
		{
			"channels":[
				{
					"sampler":0,
					"target":{
						"node":0,
						"path":"scale"
					}
				},
				{
					"sampler":1,
					"target":{
						"node":0,
						"path":"rotation"
					}
				}
			],
			"name":"torusAction",
			"samplers":[
				{
					"input":4,
					"interpolation":"LINEAR",
					"output":5
				},
				{
					"input":4,
					"interpolation":"LINEAR",
					"output":6
				}
			]
		}
	],
	"materials":[
		{
			"doubleSided":true,
			"name":"mtl",
			"pbrMetallicRoughness":{
				"baseColorTexture":{
					"index":0
				},
				"metallicFactor":0,
				"roughnessFactor":0.5
			}
		}
	],
	"meshes":[
		{
			"name":"\u30c8\u30fc\u30e9\u30b9",
			"primitives":[
				{
					"attributes":{
						"POSITION":0,
						"TEXCOORD_0":1,
						"NORMAL":2
					},
					"indices":3,
					"material":0
				}
			]
		}
	],
	"textures":[
		{
			"sampler":0,
			"source":0
		}
	],
	"images":[
		{
			"mimeType":"image/png",
			"name":"item",
			"uri":"item.png"
		}
	],
	"accessors":[
		{
			"bufferView":0,
			"componentType":5126,
			"count":124,
			"max":[
				0.21650639176368713,
				1.25,
				1.0825319290161133
			],
			"min":[
				-0.21650639176368713,
				-1.25,
				-1.0825319290161133
			],
			"type":"VEC3"
		},
		{
			"bufferView":1,
			"componentType":5126,
			"count":124,
			"type":"VEC2"
		},
		{
			"bufferView":2,
			"componentType":5126,
			"count":124,
			"type":"VEC3"
		},
		{
			"bufferView":3,
			"componentType":5123,
			"count":216,
			"type":"SCALAR"
		},
		{
			"bufferView":4,
			"componentType":5126,
			"count":61,
			"max":[
				2.5
			],
			"min":[
				0
			],
			"type":"SCALAR"
		},
		{
			"bufferView":5,
			"componentType":5126,
			"count":61,
			"type":"VEC3"
		},
		{
			"bufferView":6,
			"componentType":5126,
			"count":61,
			"type":"VEC4"
		}
	],
	"bufferViews":[
		{
			"buffer":0,
			"byteLength":1488,
			"byteOffset":0,
			"target":34962
		},
		{
			"buffer":0,
			"byteLength":992,
			"byteOffset":1488,
			"target":34962
		},
		{
			"buffer":0,
			"byteLength":1488,
			"byteOffset":2480,
			"target":34962
		},
		{
			"buffer":0,
			"byteLength":432,
			"byteOffset":3968,
			"target":34963
		},
		{
			"buffer":0,
			"byteLength":244,
			"byteOffset":4400
		},
		{
			"buffer":0,
			"byteLength":732,
			"byteOffset":4644
		},
		{
			"buffer":0,
			"byteLength":976,
			"byteOffset":5376
		}
	],
	"samplers":[
		{
			"magFilter":9729,
			"minFilter":9987
		}
	],
	"buffers":[
		{
			"byteLength":6352,
			"uri":"item_2.bin"
		}
	]
}
