{
	"asset":{
		"generator":"Khronos glTF Blender I/O v3.5.30",
		"version":"2.0"
	},
	"scene":0,
	"scenes":[
		{
			"name":"Scene",
			"nodes":[
				0
			]
		}
	],
	"nodes":[
		{
			"mesh":0,
			"name":"Cube"
		}
	],
	"animations":[
		{
			"channels":[
				{
					"sampler":0,
					"target":{
						"node":0,
						"path":"rotation"
					}
				},
				{
					"sampler":1,
					"target":{
						"node":0,
						"path":"scale"
					}
				}
			],
			"name":"CubeAction",
			"samplers":[
				{
					"input":4,
					"interpolation":"LINEAR",
					"output":5
				},
				{
					"input":4,
					"interpolation":"LINEAR",
					"output":6
				}
			]
		}
	],
	"materials":[
		{
			"doubleSided":true,
			"name":"\u30de\u30c6\u30ea\u30a2\u30eb",
			"pbrMetallicRoughness":{
				"baseColorTexture":{
					"index":0
				},
				"metallicFactor":0,
				"roughnessFactor":0.5
			}
		}
	],
	"meshes":[
		{
			"name":"\u7403",
			"primitives":[
				{
					"attributes":{
						"POSITION":0,
						"TEXCOORD_0":1,
						"NORMAL":2
					},
					"indices":3,
					"material":0
				}
			]
		}
	],
	"textures":[
		{
			"sampler":0,
			"source":0
		}
	],
	"images":[
		{
			"mimeType":"image/png",
			"name":"paint",
			"uri":"paint.png"
		}
	],
	"accessors":[
		{
			"bufferView":0,
			"componentType":5126,
			"count":1824,
			"max":[
				0.8725206255912781,
				1.8263756036758423,
				1.0075000524520874
			],
			"min":[
				-0.8725206851959229,
				-1.0075000524520874,
				-1.0075000524520874
			],
			"type":"VEC3"
		},
		{
			"bufferView":1,
			"componentType":5126,
			"count":1824,
			"type":"VEC2"
		},
		{
			"bufferView":2,
			"componentType":5126,
			"count":1824,
			"type":"VEC3"
		},
		{
			"bufferView":3,
			"componentType":5123,
			"count":2736,
			"type":"SCALAR"
		},
		{
			"bufferView":4,
			"componentType":5126,
			"count":60,
			"max":[
				2.5
			],
			"min":[
				0.041666666666666664
			],
			"type":"SCALAR"
		},
		{
			"bufferView":5,
			"componentType":5126,
			"count":60,
			"type":"VEC4"
		},
		{
			"bufferView":6,
			"componentType":5126,
			"count":60,
			"type":"VEC3"
		}
	],
	"bufferViews":[
		{
			"buffer":0,
			"byteLength":21888,
			"byteOffset":0,
			"target":34962
		},
		{
			"buffer":0,
			"byteLength":14592,
			"byteOffset":21888,
			"target":34962
		},
		{
			"buffer":0,
			"byteLength":21888,
			"byteOffset":36480,
			"target":34962
		},
		{
			"buffer":0,
			"byteLength":5472,
			"byteOffset":58368,
			"target":34963
		},
		{
			"buffer":0,
			"byteLength":240,
			"byteOffset":63840
		},
		{
			"buffer":0,
			"byteLength":960,
			"byteOffset":64080
		},
		{
			"buffer":0,
			"byteLength":720,
			"byteOffset":65040
		}
	],
	"samplers":[
		{
			"magFilter":9729,
			"minFilter":9987
		}
	],
	"buffers":[
		{
			"byteLength":65760,
			"uri":"paint_wire.bin"
		}
	]
}
