# Blender v3.5.0 OBJ File: ''
# www.blender.org
mtllib player.mtl
o Cube
v 1.000000 1.000000 -0.564933
v 1.000000 -1.000000 -1.000000
v 1.000000 0.480870 0.455303
v 1.000000 -0.028307 0.455303
v -1.000000 1.000000 -0.564933
v -1.000000 -1.000000 -1.000000
v -1.000000 0.480870 0.455303
v -1.000000 -0.028307 0.455303
v -1.000000 -1.000000 0.455303
v 1.000000 1.000000 0.455303
v -1.000000 1.000000 0.455303
v 1.000000 -1.000000 0.455303
v 1.000000 0.480870 -0.564933
v -1.000000 0.480870 1.000000
v 1.000000 0.480870 1.000000
v -1.000000 0.480870 -0.564933
v -1.000000 -1.000000 -0.564933
v 1.000000 -0.028307 -0.564933
v 1.000000 -0.028307 1.000000
v -1.000000 -0.028307 -0.564933
v 1.000000 -1.000000 -0.564933
v -1.000000 -0.028307 1.000000
vt 0.875000 0.681913
vt 0.625000 0.750000
vt 0.625000 0.681913
vt 0.560109 1.000000
vt 0.560109 0.750000
vt 0.375000 0.681913
vt 0.125000 0.750000
vt 0.125000 0.681913
vt 0.625000 0.250000
vt 0.560109 0.500000
vt 0.560109 0.250000
vt 0.625000 0.554383
vt 0.560109 0.681913
vt 0.560109 0.554383
vt 0.125000 0.554383
vt 0.875000 0.554383
vt 0.560109 0.000000
vt 0.496462 0.068087
vt 0.496462 0.000000
vt 0.496462 0.681913
vt 0.496462 0.554383
vt 0.496462 0.500000
vt 0.496462 0.250000
vt 0.496462 0.750000
vt 0.496462 1.000000
vt 0.375000 0.750000
vt 0.375000 1.000000
vt 0.375000 0.195617
vt 0.375000 0.250000
vt 0.560109 0.068087
vt 0.496462 0.195617
vt 0.375000 0.500000
vt 0.375000 0.554383
vt 0.375000 0.068087
vt 0.125000 0.500000
vt 0.625000 0.068087
vt 0.560109 0.195617
vt 0.875000 0.750000
vt 0.625000 1.000000
vt 0.625000 0.500000
vt 0.625000 0.195617
vn 0.0000 0.0000 1.0000
vn 0.0000 1.0000 0.0000
vn -0.0000 0.0000 -1.0000
vn 1.0000 0.0000 -0.0000
vn 0.0000 -1.0000 0.0000
vn -1.0000 0.0000 0.0000
vn -0.0000 0.4086 -0.9127
usemtl Material
s off
f 11/1/1 3/2/1 10/3/1
f 3/2/2 14/4/2 15/5/2
f 12/6/1 8/7/1 9/8/1
f 5/9/3 13/10/3 16/11/3
f 1/12/4 3/13/4 13/14/4
f 17/15/5 12/6/5 9/8/5
f 5/16/2 10/3/2 1/12/2
f 14/17/6 8/18/6 22/19/6
f 13/14/4 4/20/4 18/21/4
f 16/11/3 18/22/3 20/23/3
f 3/13/4 19/24/4 4/20/4
f 15/5/1 22/25/1 19/24/1
f 4/26/5 22/25/5 8/27/5
f 17/28/6 20/23/6 6/29/6
f 7/30/6 20/31/6 8/18/6
f 20/23/7 2/32/7 6/29/7
f 18/21/4 12/6/4 21/33/4
f 8/18/6 17/28/6 9/34/6
f 2/32/4 18/21/4 21/33/4
f 2/32/5 17/15/5 6/35/5
f 11/36/6 16/37/6 7/30/6
f 11/1/1 7/38/1 3/2/1
f 3/2/2 7/39/2 14/4/2
f 12/6/1 4/26/1 8/7/1
f 5/9/3 1/40/3 13/10/3
f 1/12/4 10/3/4 3/13/4
f 17/15/5 21/33/5 12/6/5
f 5/16/2 11/1/2 10/3/2
f 14/17/6 7/30/6 8/18/6
f 13/14/4 3/13/4 4/20/4
f 16/11/3 13/10/3 18/22/3
f 3/13/4 15/5/4 19/24/4
f 15/5/1 14/4/1 22/25/1
f 4/26/5 19/24/5 22/25/5
f 7/30/6 16/37/6 20/31/6
f 20/23/7 18/22/7 2/32/7
f 18/21/4 4/20/4 12/6/4
f 8/18/6 20/31/6 17/28/6
f 2/32/5 21/33/5 17/15/5
f 11/36/6 5/41/6 16/37/6
