# Blender v3.5.0 OBJ File: ''
# www.blender.org
mtllib enemy.mtl
o Sphere_çƒ
v 0.000000 0.519615 0.300000
v -0.000000 0.580266 1.050135
v 0.000000 0.000000 0.600000
v 0.000000 -0.300000 0.519615
v 0.000000 -0.519615 0.300000
v -0.259808 0.519615 0.150000
v -0.450000 0.300000 0.259808
v -0.519615 0.000000 0.300000
v -0.909443 -0.580266 0.525067
v -0.259808 -0.519615 0.150000
v -0.259808 0.519615 -0.150000
v -0.909443 0.580266 -0.525068
v -0.519615 0.000000 -0.300000
v -0.450000 -0.300000 -0.259808
v -0.259808 -0.519615 -0.150000
v 0.000000 0.519615 -0.300000
v 0.000000 0.300000 -0.519615
v 0.000000 0.000000 -0.600000
v 0.000000 -0.580266 -1.050135
v 0.000000 -0.519615 -0.300000
v -0.000000 1.200000 -0.000000
v 0.259808 0.519615 -0.150000
v 0.909444 0.580266 -0.525067
v 0.519615 0.000000 -0.300000
v 0.450000 -0.300000 -0.259808
v 0.259808 -0.519615 -0.150000
v 0.259808 0.519615 0.150000
v 0.450000 0.300000 0.259808
v 0.519615 0.000000 0.300000
v 0.909443 -0.580266 0.525068
v 0.259808 -0.519615 0.150000
v 0.000000 -1.200000 -0.000000
vt 0.666667 0.833333
vt 0.583333 1.000000
vt 0.500000 0.833333
vt 0.583333 0.000000
vt 0.666667 0.166667
vt 0.500000 0.166667
vt 0.666667 0.333333
vt 0.500000 0.500000
vt 0.500000 0.333333
vt 0.500000 0.666667
vt 0.666667 0.666667
vt 0.666667 0.500000
vt 0.416667 0.000000
vt 0.333333 0.166667
vt 0.333333 0.333333
vt 0.333333 0.833333
vt 0.333333 0.666667
vt 0.333333 0.500000
vt 0.416667 1.000000
vt 0.166667 0.500000
vt 0.166667 0.333333
vt 0.166667 0.666667
vt 0.166667 0.166667
vt 0.250000 1.000000
vt 0.166667 0.833333
vt 0.250000 0.000000
vt 0.000000 0.833333
vt 0.000000 0.666667
vt 0.000000 0.333333
vt 0.000000 0.166667
vt 0.000000 0.500000
vt 0.083333 1.000000
vt 0.083333 0.000000
vt 1.000000 0.333333
vt 0.833333 0.166667
vt 1.000000 0.166667
vt 1.000000 0.500000
vt 0.833333 0.666667
vt 0.833333 0.500000
vt 1.000000 0.833333
vt 0.916667 1.000000
vt 0.833333 0.833333
vt 0.916667 0.000000
vt 0.833333 0.333333
vt 1.000000 0.666667
vt 0.750000 1.000000
vt 0.750000 0.000000
vn -0.4671 0.3567 0.8090
vn -0.4671 -0.3567 0.8090
vn -0.1278 0.4321 0.8927
vn -0.4322 0.8989 -0.0727
vn -0.3780 -0.6547 0.6547
vn -0.4871 0.2260 0.8436
vn -0.9342 -0.3567 -0.0000
vn -0.8370 0.4321 -0.3357
vn -0.1532 0.8989 0.4106
vn -0.7559 -0.6547 0.0000
vn -0.9741 0.2260 -0.0000
vn -0.9342 0.3567 -0.0000
vn -0.7092 0.4321 -0.5570
vn 0.2790 0.8989 -0.3379
vn -0.3780 -0.6547 -0.6547
vn -0.4871 0.2260 -0.8436
vn -0.4671 0.3567 -0.8090
vn -0.4671 -0.3567 -0.8090
vn -0.2790 0.8989 -0.3379
vn 0.3780 -0.6547 -0.6547
vn 0.4871 0.2260 -0.8436
vn 0.4671 0.3567 -0.8090
vn 0.4671 -0.3567 -0.8090
vn 0.7092 0.4321 -0.5570
vn 0.7559 -0.6547 0.0000
vn 0.9741 0.2260 0.0000
vn 0.9342 0.3567 0.0000
vn 0.9342 -0.3567 0.0000
vn 0.8370 0.4321 -0.3357
vn 0.1532 0.8989 0.4106
vn 0.3780 -0.6547 0.6547
vn 0.4871 0.2260 0.8436
vn 0.4671 0.3567 0.8090
vn 0.4671 -0.3567 0.8090
vn 0.1278 0.4321 0.8927
vn 0.4322 0.8989 -0.0727
vn -0.4871 -0.2260 0.8436
vn -0.3780 0.6547 0.6547
vn 0.2790 -0.8989 0.3379
vn -0.7092 -0.4321 0.5570
vn -0.9741 -0.2260 -0.0000
vn -0.7559 0.6547 -0.0000
vn -0.1532 -0.8989 -0.4106
vn -0.8370 -0.4321 0.3357
vn -0.4871 -0.2260 -0.8436
vn -0.3780 0.6547 -0.6547
vn -0.4322 -0.8989 0.0727
vn -0.1278 -0.4321 -0.8927
vn 0.3780 0.6547 -0.6547
vn 0.4322 -0.8989 0.0727
vn 0.1278 -0.4321 -0.8927
vn 0.4871 -0.2260 -0.8436
vn 0.1532 -0.8989 -0.4106
vn 0.8370 -0.4321 0.3357
vn 0.9741 -0.2260 0.0000
vn 0.7559 0.6547 0.0000
vn -0.2790 -0.8989 0.3379
vn 0.7092 -0.4321 0.5570
vn 0.4871 -0.2260 0.8436
vn 0.3780 0.6547 0.6547
usemtl None
s off
f 1/1/1 21/2/1 6/3/1
f 32/4/2 5/5/2 10/6/2
f 4/7/3 8/8/3 9/9/3
f 1/1/4 7/10/4 2/11/4
f 4/7/5 10/6/5 5/5/5
f 3/12/6 7/10/6 8/8/6
f 32/13/7 10/6/7 15/14/7
f 8/8/8 14/15/8 9/9/8
f 7/10/9 11/16/9 12/17/9
f 10/6/10 14/15/10 15/14/10
f 7/10/11 13/18/11 8/8/11
f 6/3/12 21/19/12 11/16/12
f 14/15/13 18/20/13 19/21/13
f 11/16/14 17/22/14 12/17/14
f 14/15/15 20/23/15 15/14/15
f 13/18/16 17/22/16 18/20/16
f 11/16/17 21/24/17 16/25/17
f 32/26/18 15/14/18 20/23/18
f 17/22/19 22/27/19 23/28/19
f 20/23/20 25/29/20 26/30/20
f 17/22/21 24/31/21 18/20/21
f 16/25/22 21/32/22 22/27/22
f 32/33/23 20/23/23 26/30/23
f 18/20/24 25/29/24 19/21/24
f 25/34/25 31/35/25 26/36/25
f 24/37/26 28/38/26 29/39/26
f 22/40/27 21/41/27 27/42/27
f 32/43/28 26/36/28 31/35/28
f 25/34/29 29/39/29 30/44/29
f 22/40/30 28/38/30 23/45/30
f 31/35/31 4/7/31 5/5/31
f 28/38/32 3/12/32 29/39/32
f 27/42/33 21/46/33 1/1/33
f 32/47/34 31/35/34 5/5/34
f 29/39/35 4/7/35 30/44/35
f 28/38/36 1/1/36 2/11/36
f 4/7/37 3/12/37 8/8/37
f 1/1/38 6/3/38 7/10/38
f 4/7/39 9/9/39 10/6/39
f 3/12/40 2/11/40 7/10/40
f 8/8/41 13/18/41 14/15/41
f 7/10/42 6/3/42 11/16/42
f 10/6/43 9/9/43 14/15/43
f 7/10/44 12/17/44 13/18/44
f 14/15/45 13/18/45 18/20/45
f 11/16/46 16/25/46 17/22/46
f 14/15/47 19/21/47 20/23/47
f 13/18/48 12/17/48 17/22/48
f 17/22/49 16/25/49 22/27/49
f 20/23/50 19/21/50 25/29/50
f 17/22/51 23/28/51 24/31/51
f 18/20/52 24/31/52 25/29/52
f 25/34/53 30/44/53 31/35/53
f 24/37/54 23/45/54 28/38/54
f 25/34/55 24/37/55 29/39/55
f 22/40/56 27/42/56 28/38/56
f 31/35/57 30/44/57 4/7/57
f 28/38/58 2/11/58 3/12/58
f 29/39/59 3/12/59 4/7/59
f 28/38/60 27/42/60 1/1/60
