# Blender v3.5.0 OBJ File: ''
# www.blender.org
mtllib goal.mtl
o Cube
v 0.000000 -1.000000 1.000000
v 0.000000 1.000000 -1.000000
v 0.000000 -1.000000 -1.000000
v 0.000000 1.000000 1.000000
v -0.466822 -1.000000 -1.000000
v -0.466822 1.000000 1.000000
v -0.466822 -1.000000 1.000000
v -0.466822 1.000000 -1.000000
v 0.500000 -1.000000 1.000000
v 0.500000 1.000000 -1.000000
v 0.500000 -1.000000 -1.000000
v 0.500000 1.000000 1.000000
v 1.000000 -1.000000 0.000000
v -1.000000 1.000000 0.000000
v 1.000000 1.000000 0.000000
v -1.000000 -1.000000 0.000000
v -0.466822 1.000000 0.000000
v -0.466822 -1.000000 0.000000
v 0.500000 -1.000000 0.000000
v 0.500000 1.000000 0.000000
v 1.000000 -1.000000 -0.500000
v -1.000000 1.000000 -0.500000
v 0.000000 -1.000000 -0.500000
v 0.000000 1.000000 -0.500000
v -0.466822 1.000000 -0.500000
v -0.466822 -1.000000 -0.500000
v 0.500000 -1.000000 -0.500000
v 0.500000 1.000000 -0.500000
v 1.000000 1.000000 -0.500000
v -1.000000 -1.000000 -0.500000
v 1.000000 1.000000 0.500000
v -1.000000 -1.000000 0.500000
v 1.000000 -1.000000 0.500000
v -1.000000 1.000000 0.500000
v 0.000000 -1.000000 0.500000
v 0.000000 1.000000 0.500000
v -0.466822 1.000000 0.500000
v -0.466822 -1.000000 0.500000
v 0.500000 -1.000000 0.500000
v 0.500000 1.000000 0.500000
v -1.000000 0.000000 1.000000
v 1.000000 0.000000 -1.000000
v -1.000000 0.000000 -1.000000
v 1.000000 0.000000 1.000000
v -0.466822 0.000000 -1.000000
v -0.466822 0.000000 1.000000
v 0.500000 0.000000 1.000000
v 0.500000 0.000000 -1.000000
v 1.000000 0.000000 -0.500000
v -1.000000 0.000000 -0.500000
v -1.000000 0.000000 0.500000
v 1.000000 0.000000 0.500000
v 1.000000 0.500000 -1.000000
v -1.000000 0.500000 1.000000
v -1.000000 0.500000 -1.000000
v 1.000000 0.500000 1.000000
v 0.000000 0.500000 1.000000
v 0.000000 0.500000 -1.000000
v -0.466822 0.500000 -1.000000
v -0.466822 0.500000 1.000000
v 0.500000 0.500000 1.000000
v 0.500000 0.500000 -1.000000
v -1.000000 0.500000 0.000000
v 1.000000 0.500000 0.000000
v 1.000000 0.500000 -0.500000
v -1.000000 0.500000 -0.500000
v -1.000000 0.500000 0.500000
v 1.000000 0.500000 0.500000
v -1.000000 -0.500000 1.000000
v -1.000000 -0.500000 -1.000000
v 1.000000 -0.500000 1.000000
v 0.000000 -0.500000 1.000000
v 0.000000 -0.500000 -1.000000
v -0.466822 -0.500000 -1.000000
v -0.466822 -0.500000 1.000000
v 0.500000 -0.500000 1.000000
v 0.500000 -0.500000 -1.000000
v -1.000000 -0.500000 0.000000
v 1.000000 -0.500000 0.000000
v 1.000000 -0.500000 -0.500000
v -1.000000 -0.500000 -0.500000
v -1.000000 -0.500000 0.500000
v 1.000000 -0.500000 0.500000
v 1.000000 -0.500000 -1.000000
v 0.000000 -0.990000 0.990000
v 0.000000 0.990000 -0.990000
v 0.000000 -0.990000 -0.990000
v 0.000000 0.990000 0.990000
v -0.462154 -0.990000 -0.990000
v -0.462154 0.990000 0.990000
v -0.462154 -0.990000 0.990000
v -0.462154 0.990000 -0.990000
v 0.495000 -0.990000 0.990000
v 0.495000 0.990000 -0.990000
v 0.495000 -0.990000 -0.990000
v 0.495000 0.990000 0.990000
v 0.990000 -0.990000 0.000000
v -0.990000 0.990000 0.000000
v 0.990000 0.990000 0.000000
v -0.990000 -0.990000 0.000000
v -0.462154 0.990000 0.000000
v -0.462154 -0.990000 0.000000
v 0.495000 -0.990000 0.000000
v 0.495000 0.990000 0.000000
v 0.990000 -0.990000 -0.495000
v -0.990000 0.990000 -0.495000
v 0.000000 -0.990000 -0.495000
v 0.000000 0.990000 -0.495000
v -0.462154 0.990000 -0.495000
v -0.462154 -0.990000 -0.495000
v 0.495000 -0.990000 -0.495000
v 0.495000 0.990000 -0.495000
v 0.990000 0.990000 -0.495000
v -0.990000 -0.990000 -0.495000
v 0.990000 0.990000 0.495000
v -0.990000 -0.990000 0.495000
v 0.990000 -0.990000 0.495000
v -0.990000 0.990000 0.495000
v 0.000000 -0.990000 0.495000
v 0.000000 0.990000 0.495000
v -0.462154 0.990000 0.495000
v -0.462154 -0.990000 0.495000
v 0.495000 -0.990000 0.495000
v 0.495000 0.990000 0.495000
v -0.990000 0.000000 0.990000
v 0.990000 0.000000 -0.990000
v -0.990000 0.000000 -0.990000
v 0.990000 0.000000 0.990000
v -0.462154 0.000000 -0.990000
v -0.462154 0.000000 0.990000
v 0.495000 0.000000 0.990000
v 0.495000 0.000000 -0.990000
v 0.990000 0.000000 -0.495000
v -0.990000 0.000000 -0.495000
v -0.990000 0.000000 0.495000
v 0.990000 0.000000 0.495000
v 0.990000 0.495000 -0.990000
v -0.990000 0.495000 0.990000
v -0.990000 0.495000 -0.990000
v 0.990000 0.495000 0.990000
v 0.000000 0.495000 0.990000
v 0.000000 0.495000 -0.990000
v -0.462154 0.495000 -0.990000
v -0.462154 0.495000 0.990000
v 0.495000 0.495000 0.990000
v 0.495000 0.495000 -0.990000
v -0.990000 0.495000 0.000000
v 0.990000 0.495000 0.000000
v 0.990000 0.495000 -0.495000
v -0.990000 0.495000 -0.495000
v -0.990000 0.495000 0.495000
v 0.990000 0.495000 0.495000
v -0.990000 -0.495000 0.990000
v -0.990000 -0.495000 -0.990000
v 0.990000 -0.495000 0.990000
v 0.000000 -0.495000 0.990000
v 0.000000 -0.495000 -0.990000
v -0.462154 -0.495000 -0.990000
v -0.462154 -0.495000 0.990000
v 0.495000 -0.495000 0.990000
v 0.495000 -0.495000 -0.990000
v -0.990000 -0.495000 0.000000
v 0.990000 -0.495000 0.000000
v 0.990000 -0.495000 -0.495000
v -0.990000 -0.495000 -0.495000
v -0.990000 -0.495000 0.495000
v 0.990000 -0.495000 0.495000
v 0.990000 -0.495000 -0.990000
vt 0.625000 0.312500
vt 0.562500 0.375000
vt 0.562500 0.312500
vt 0.250000 0.687500
vt 0.187500 0.750000
vt 0.187500 0.687500
vt 0.625000 0.816647
vt 0.562500 0.875000
vt 0.562500 0.816647
vt 0.750000 0.687500
vt 0.691647 0.750000
vt 0.691647 0.687500
vt 0.625000 0.375000
vt 0.562500 0.433353
vt 0.308353 0.687500
vt 0.250000 0.750000
vt 0.625000 0.875000
vt 0.562500 0.937500
vt 0.812500 0.687500
vt 0.750000 0.750000
vt 0.187500 0.562500
vt 0.125000 0.625000
vt 0.125000 0.562500
vt 0.691647 0.562500
vt 0.625000 0.625000
vt 0.625000 0.562500
vt 0.562500 0.625000
vt 0.562500 0.562500
vt 0.375000 0.562500
vt 0.308353 0.625000
vt 0.308353 0.562500
vt 0.625000 0.062500
vt 0.562500 0.125000
vt 0.562500 0.062500
vt 0.875000 0.562500
vt 0.812500 0.625000
vt 0.812500 0.562500
vt 0.187500 0.625000
vt 0.125000 0.687500
vt 0.691647 0.625000
vt 0.625000 0.687500
vt 0.562500 0.687500
vt 0.375000 0.625000
vt 0.875000 0.625000
vt 0.250000 0.500000
vt 0.187500 0.500000
vt 0.750000 0.500000
vt 0.691647 0.500000
vt 0.308353 0.500000
vt 0.250000 0.562500
vt 0.812500 0.500000
vt 0.750000 0.562500
vt 0.625000 0.125000
vt 0.562500 0.187500
vt 0.500000 0.500000
vt 0.437500 0.562500
vt 0.437500 0.500000
vt 0.500000 0.000000
vt 0.437500 0.062500
vt 0.437500 0.000000
vt 0.500000 0.250000
vt 0.437500 0.312500
vt 0.437500 0.250000
vt 0.500000 0.750000
vt 0.437500 0.816647
vt 0.437500 0.750000
vt 0.500000 0.433353
vt 0.437500 0.433353
vt 0.500000 0.687500
vt 0.437500 0.687500
vt 0.500000 0.187500
vt 0.437500 0.187500
vt 0.500000 0.937500
vt 0.437500 1.000000
vt 0.437500 0.937500
vt 0.562500 0.500000
vt 0.500000 0.562500
vt 0.562500 0.000000
vt 0.500000 0.062500
vt 0.562500 0.250000
vt 0.500000 0.312500
vt 0.562500 0.750000
vt 0.500000 0.816647
vt 0.500000 1.000000
vt 0.375000 0.375000
vt 0.375000 0.312500
vt 0.375000 0.875000
vt 0.375000 0.816647
vt 0.437500 0.375000
vt 0.375000 0.433353
vt 0.437500 0.875000
vt 0.375000 0.937500
vt 0.375000 0.125000
vt 0.375000 0.062500
vt 0.437500 0.625000
vt 0.375000 0.687500
vt 0.437500 0.125000
vt 0.375000 0.187500
vt 0.562500 0.375000
vt 0.625000 0.312500
vt 0.562500 0.312500
vt 0.187500 0.750000
vt 0.250000 0.687500
vt 0.187500 0.687500
vt 0.562500 0.875000
vt 0.625000 0.816647
vt 0.562500 0.816647
vt 0.691647 0.750000
vt 0.750000 0.687500
vt 0.691647 0.687500
vt 0.562500 0.433353
vt 0.625000 0.375000
vt 0.250000 0.750000
vt 0.308353 0.687500
vt 0.562500 0.937500
vt 0.625000 0.875000
vt 0.750000 0.750000
vt 0.812500 0.687500
vt 0.125000 0.625000
vt 0.187500 0.562500
vt 0.125000 0.562500
vt 0.625000 0.625000
vt 0.691647 0.562500
vt 0.625000 0.562500
vt 0.562500 0.625000
vt 0.562500 0.562500
vt 0.308353 0.625000
vt 0.375000 0.562500
vt 0.308353 0.562500
vt 0.562500 0.125000
vt 0.625000 0.062500
vt 0.562500 0.062500
vt 0.812500 0.625000
vt 0.875000 0.562500
vt 0.812500 0.562500
vt 0.125000 0.687500
vt 0.187500 0.625000
vt 0.625000 0.687500
vt 0.691647 0.625000
vt 0.562500 0.687500
vt 0.375000 0.625000
vt 0.875000 0.625000
vt 0.250000 0.500000
vt 0.187500 0.500000
vt 0.750000 0.500000
vt 0.691647 0.500000
vt 0.250000 0.562500
vt 0.308353 0.500000
vt 0.750000 0.562500
vt 0.812500 0.500000
vt 0.562500 0.187500
vt 0.625000 0.125000
vt 0.437500 0.562500
vt 0.500000 0.500000
vt 0.437500 0.500000
vt 0.437500 0.062500
vt 0.500000 0.000000
vt 0.437500 0.000000
vt 0.437500 0.312500
vt 0.500000 0.250000
vt 0.437500 0.250000
vt 0.437500 0.816647
vt 0.500000 0.750000
vt 0.437500 0.750000
vt 0.500000 0.433353
vt 0.437500 0.433353
vt 0.500000 0.687500
vt 0.437500 0.687500
vt 0.500000 0.187500
vt 0.437500 0.187500
vt 0.437500 1.000000
vt 0.500000 0.937500
vt 0.437500 0.937500
vt 0.500000 0.562500
vt 0.562500 0.500000
vt 0.500000 0.062500
vt 0.562500 0.000000
vt 0.500000 0.312500
vt 0.562500 0.250000
vt 0.500000 0.816647
vt 0.562500 0.750000
vt 0.500000 1.000000
vt 0.375000 0.375000
vt 0.375000 0.312500
vt 0.375000 0.875000
vt 0.375000 0.816647
vt 0.375000 0.433353
vt 0.437500 0.375000
vt 0.375000 0.937500
vt 0.437500 0.875000
vt 0.375000 0.125000
vt 0.375000 0.062500
vt 0.375000 0.687500
vt 0.437500 0.625000
vt 0.375000 0.187500
vt 0.437500 0.125000
vt 0.625000 0.433353
vt 0.308353 0.750000
vt 0.625000 0.937500
vt 0.812500 0.750000
vt 0.875000 0.687500
vt 0.625000 0.187500
vt 0.562500 1.000000
vt 0.625000 0.433353
vt 0.308353 0.750000
vt 0.625000 0.937500
vt 0.812500 0.750000
vt 0.875000 0.687500
vt 0.625000 0.187500
vt 0.562500 1.000000
vn 0.0000 0.0000 1.0000
vn 0.0000 -1.0000 0.0000
vn 0.0000 0.0000 -1.0000
vn 0.0000 1.0000 0.0000
vn -1.0000 0.0000 0.0000
vn 1.0000 0.0000 0.0000
usemtl Material.002
s off
f 12/1/1 57/2/1 61/3/1
f 23/4/2 11/5/2 27/6/2
f 8/7/3 58/8/3 59/9/3
f 24/10/4 8/11/4 25/12/4
f 4/13/1 60/14/1 57/2/1
f 26/15/2 3/16/2 23/4/2
f 2/17/3 62/18/3 58/8/3
f 28/19/4 2/20/4 24/10/4
f 39/21/2 13/22/2 33/23/2
f 37/24/4 14/25/4 34/26/4
f 34/26/5 63/27/5 67/28/5
f 32/29/2 18/30/2 38/31/2
f 29/32/6 64/33/6 65/34/6
f 31/35/4 20/36/4 40/37/4
f 19/38/2 21/39/2 13/22/2
f 17/40/4 22/41/4 14/25/4
f 14/25/5 66/42/5 63/27/5
f 16/43/2 26/15/2 18/30/2
f 15/44/4 28/19/4 20/36/4
f 1/45/2 39/21/2 9/46/2
f 4/47/4 37/24/4 6/48/4
f 7/49/2 35/50/2 1/45/2
f 12/51/4 36/52/4 4/47/4
f 15/53/6 68/54/6 64/33/6
f 41/55/5 82/56/5 69/57/5
f 42/58/6 80/59/6 84/60/6
f 44/61/1 76/62/1 71/63/1
f 43/64/3 74/65/3 70/66/3
f 46/67/1 69/57/1 75/68/1
f 50/69/5 70/66/5 81/70/5
f 52/71/6 71/63/6 83/72/6
f 48/73/3 84/74/3 77/75/3
f 54/76/5 51/77/5 41/55/5
f 53/78/6 49/79/6 42/58/6
f 56/80/1 47/81/1 44/61/1
f 55/82/3 45/83/3 43/64/3
f 60/14/1 41/55/1 46/67/1
f 66/42/5 43/64/5 50/69/5
f 68/54/6 44/61/6 52/71/6
f 62/18/3 42/84/3 48/73/3
f 76/62/1 1/85/1 9/86/1
f 74/65/3 3/87/3 5/88/3
f 72/89/1 7/90/1 1/85/1
f 73/91/3 11/92/3 3/87/3
f 82/56/5 16/43/5 32/29/5
f 80/59/6 13/93/6 21/94/6
f 78/95/5 30/96/5 16/43/5
f 79/97/6 33/98/6 13/93/6
f 141/99/3 96/100/3 145/101/3
f 95/102/4 107/103/4 111/104/4
f 142/105/1 92/106/1 143/107/1
f 92/108/2 108/109/2 109/110/2
f 144/111/3 88/112/3 141/99/3
f 87/113/4 110/114/4 107/103/4
f 146/115/1 86/116/1 142/105/1
f 86/117/2 112/118/2 108/109/2
f 97/119/4 123/120/4 117/121/4
f 98/122/2 121/123/2 118/124/2
f 147/125/6 118/124/6 151/126/6
f 102/127/4 116/128/4 122/129/4
f 148/130/5 113/131/5 149/132/5
f 104/133/2 115/134/2 124/135/2
f 105/136/4 103/137/4 97/119/4
f 106/138/2 101/139/2 98/122/2
f 150/140/6 98/122/6 147/125/6
f 110/114/4 100/141/4 102/127/4
f 112/118/2 99/142/2 104/133/2
f 123/120/4 85/143/4 93/144/4
f 121/123/2 88/145/2 90/146/2
f 119/147/4 91/148/4 85/143/4
f 120/149/2 96/150/2 88/145/2
f 152/151/5 99/152/5 148/130/5
f 166/153/6 125/154/6 153/155/6
f 164/156/5 126/157/5 168/158/5
f 160/159/3 128/160/3 155/161/3
f 158/162/1 127/163/1 154/164/1
f 153/155/3 130/165/3 159/166/3
f 154/164/6 134/167/6 165/168/6
f 155/161/5 136/169/5 167/170/5
f 168/171/1 132/172/1 161/173/1
f 135/174/6 138/175/6 125/154/6
f 133/176/5 137/177/5 126/157/5
f 131/178/3 140/179/3 128/160/3
f 129/180/1 139/181/1 127/163/1
f 125/154/3 144/111/3 130/165/3
f 127/163/6 150/140/6 134/167/6
f 128/160/5 152/151/5 136/169/5
f 126/182/1 146/115/1 132/172/1
f 85/183/3 160/159/3 93/184/3
f 87/185/1 158/162/1 89/186/1
f 91/187/3 156/188/3 85/183/3
f 95/189/1 157/190/1 87/185/1
f 100/141/6 166/153/6 116/128/6
f 97/191/5 164/156/5 105/192/5
f 114/193/6 162/194/6 100/141/6
f 117/195/5 163/196/5 97/191/5
f 12/1/1 4/13/1 57/2/1
f 23/4/2 3/16/2 11/5/2
f 8/7/3 2/17/3 58/8/3
f 24/10/4 2/20/4 8/11/4
f 4/13/1 6/197/1 60/14/1
f 26/15/2 5/198/2 3/16/2
f 2/17/3 10/199/3 62/18/3
f 28/19/4 10/200/4 2/20/4
f 39/21/2 19/38/2 13/22/2
f 37/24/4 17/40/4 14/25/4
f 34/26/5 14/25/5 63/27/5
f 32/29/2 16/43/2 18/30/2
f 29/32/6 15/53/6 64/33/6
f 31/35/4 15/44/4 20/36/4
f 19/38/2 27/6/2 21/39/2
f 17/40/4 25/12/4 22/41/4
f 14/25/5 22/41/5 66/42/5
f 16/43/2 30/96/2 26/15/2
f 15/44/4 29/201/4 28/19/4
f 1/45/2 35/50/2 39/21/2
f 4/47/4 36/52/4 37/24/4
f 7/49/2 38/31/2 35/50/2
f 12/51/4 40/37/4 36/52/4
f 15/53/6 31/202/6 68/54/6
f 41/55/5 51/77/5 82/56/5
f 42/58/6 49/79/6 80/59/6
f 44/61/1 47/81/1 76/62/1
f 43/64/3 45/83/3 74/65/3
f 46/67/1 41/55/1 69/57/1
f 50/69/5 43/64/5 70/66/5
f 52/71/6 44/61/6 71/63/6
f 48/73/3 42/84/3 84/74/3
f 54/76/5 67/28/5 51/77/5
f 53/78/6 65/34/6 49/79/6
f 56/80/1 61/3/1 47/81/1
f 55/82/3 59/9/3 45/83/3
f 60/14/1 54/76/1 41/55/1
f 66/42/5 55/82/5 43/64/5
f 68/54/6 56/80/6 44/61/6
f 62/18/3 53/203/3 42/84/3
f 76/62/1 72/89/1 1/85/1
f 74/65/3 73/91/3 3/87/3
f 72/89/1 75/68/1 7/90/1
f 73/91/3 77/75/3 11/92/3
f 82/56/5 78/95/5 16/43/5
f 80/59/6 79/97/6 13/93/6
f 78/95/5 81/70/5 30/96/5
f 79/97/6 83/72/6 33/98/6
f 141/99/3 88/112/3 96/100/3
f 95/102/4 87/113/4 107/103/4
f 142/105/1 86/116/1 92/106/1
f 92/108/2 86/117/2 108/109/2
f 144/111/3 90/204/3 88/112/3
f 87/113/4 89/205/4 110/114/4
f 146/115/1 94/206/1 86/116/1
f 86/117/2 94/207/2 112/118/2
f 97/119/4 103/137/4 123/120/4
f 98/122/2 101/139/2 121/123/2
f 147/125/6 98/122/6 118/124/6
f 102/127/4 100/141/4 116/128/4
f 148/130/5 99/152/5 113/131/5
f 104/133/2 99/142/2 115/134/2
f 105/136/4 111/104/4 103/137/4
f 106/138/2 109/110/2 101/139/2
f 150/140/6 106/138/6 98/122/6
f 110/114/4 114/193/4 100/141/4
f 112/118/2 113/208/2 99/142/2
f 123/120/4 119/147/4 85/143/4
f 121/123/2 120/149/2 88/145/2
f 119/147/4 122/129/4 91/148/4
f 120/149/2 124/135/2 96/150/2
f 152/151/5 115/209/5 99/152/5
f 166/153/6 135/174/6 125/154/6
f 164/156/5 133/176/5 126/157/5
f 160/159/3 131/178/3 128/160/3
f 158/162/1 129/180/1 127/163/1
f 153/155/3 125/154/3 130/165/3
f 154/164/6 127/163/6 134/167/6
f 155/161/5 128/160/5 136/169/5
f 168/171/1 126/182/1 132/172/1
f 135/174/6 151/126/6 138/175/6
f 133/176/5 149/132/5 137/177/5
f 131/178/3 145/101/3 140/179/3
f 129/180/1 143/107/1 139/181/1
f 125/154/3 138/175/3 144/111/3
f 127/163/6 139/181/6 150/140/6
f 128/160/5 140/179/5 152/151/5
f 126/182/1 137/210/1 146/115/1
f 85/183/3 156/188/3 160/159/3
f 87/185/1 157/190/1 158/162/1
f 91/187/3 159/166/3 156/188/3
f 95/189/1 161/173/1 157/190/1
f 100/141/6 162/194/6 166/153/6
f 97/191/5 163/196/5 164/156/5
f 114/193/6 165/168/6 162/194/6
f 117/195/5 167/170/5 163/196/5
