# Blender v3.5.0 OBJ File: ''
# www.blender.org
mtllib goal.mtl
o torus_トーラス
v 0.000000 -1.250000 0.000000
v -0.216506 -1.125000 0.000000
v -0.216506 -0.875000 0.000000
v 0.000000 -0.750000 0.000000
v 0.216506 -0.875000 0.000000
v 0.216506 -1.125000 0.000000
v 0.000000 -1.154849 0.478354
v -0.216506 -1.039364 0.430519
v -0.216506 -0.808395 0.334848
v 0.000000 -0.692910 0.287013
v 0.216506 -0.808395 0.334848
v 0.216506 -1.039364 0.430519
v 0.000000 -0.883883 0.883884
v -0.216506 -0.795495 0.795495
v -0.216506 -0.618718 0.618719
v 0.000000 -0.530330 0.530330
v 0.216506 -0.618718 0.618719
v 0.216506 -0.795495 0.795495
v 0.000000 -0.478355 1.154849
v -0.216506 -0.430519 1.039364
v -0.216506 -0.334848 0.808394
v 0.000000 -0.287013 0.692910
v 0.216506 -0.334848 0.808394
v 0.216506 -0.430519 1.039364
v 0.000000 -0.000000 1.250000
v -0.216506 -0.000000 1.125000
v -0.216506 -0.000000 0.875000
v 0.000000 -0.000000 0.750000
v 0.216506 -0.000000 0.875000
v 0.216506 -0.000000 1.125000
v -0.000000 0.478354 1.154849
v -0.216506 0.430519 1.039364
v -0.216506 0.334848 0.808395
v -0.000000 0.287013 0.692910
v 0.216506 0.334848 0.808395
v 0.216506 0.430519 1.039364
v -0.000000 0.883884 0.883883
v -0.216506 0.795495 0.795495
v -0.216506 0.618719 0.618718
v -0.000000 0.530330 0.530330
v 0.216506 0.618719 0.618718
v 0.216506 0.795495 0.795495
v -0.000000 1.154849 0.478354
v -0.216506 1.039364 0.430519
v -0.216506 0.808395 0.334848
v -0.000000 0.692910 0.287013
v 0.216506 0.808395 0.334848
v 0.216506 1.039364 0.430519
v -0.000000 1.250000 0.000000
v -0.216506 1.125000 0.000000
v -0.216506 0.875000 0.000000
v -0.000000 0.750000 0.000000
v 0.216506 0.875000 0.000000
v 0.216506 1.125000 0.000000
v -0.000000 1.154850 -0.478354
v -0.216506 1.039365 -0.430518
v -0.216506 0.808395 -0.334848
v -0.000000 0.692910 -0.287012
v 0.216506 0.808395 -0.334848
v 0.216506 1.039365 -0.430518
v -0.000000 0.883884 -0.883883
v -0.216506 0.795495 -0.795495
v -0.216506 0.618719 -0.618718
v -0.000000 0.530330 -0.530330
v 0.216506 0.618719 -0.618718
v 0.216506 0.795495 -0.795495
v -0.000000 0.478354 -1.154849
v -0.216506 0.430519 -1.039364
v -0.216506 0.334848 -0.808395
v -0.000000 0.287013 -0.692910
v 0.216506 0.334848 -0.808395
v 0.216506 0.430519 -1.039364
v 0.000000 -0.000000 -1.250000
v -0.216506 -0.000000 -1.125000
v -0.216506 -0.000000 -0.875000
v 0.000000 -0.000000 -0.750000
v 0.216506 -0.000000 -0.875000
v 0.216506 -0.000000 -1.125000
v 0.000000 -0.478355 -1.154849
v -0.216506 -0.430519 -1.039364
v -0.216506 -0.334848 -0.808394
v 0.000000 -0.287013 -0.692910
v 0.216506 -0.334848 -0.808394
v 0.216506 -0.430519 -1.039364
v 0.000000 -0.883883 -0.883884
v -0.216506 -0.795495 -0.795496
v -0.216506 -0.618718 -0.618719
v 0.000000 -0.530330 -0.530330
v 0.216506 -0.618718 -0.618719
v 0.216506 -0.795495 -0.795496
v 0.000000 -1.154849 -0.478355
v -0.216506 -1.039364 -0.430519
v -0.216506 -0.808394 -0.334848
v 0.000000 -0.692910 -0.287013
v 0.216506 -0.808394 -0.334848
v 0.216506 -1.039364 -0.430519
vt 0.500000 0.500000
vt 0.562500 0.666667
vt 0.500000 0.666667
vt 0.500000 0.833333
vt 0.562500 0.833333
vt 0.500000 1.000000
vt 0.562500 -0.000000
vt 0.500000 0.166667
vt 0.500000 -0.000000
vt 0.562500 0.166667
vt 0.500000 0.333333
vt 0.562500 0.333333
vt 0.625000 0.500000
vt 0.562500 0.500000
vt 0.625000 0.666667
vt 0.625000 1.000000
vt 0.562500 1.000000
vt 0.625000 -0.000000
vt 0.625000 0.333333
vt 0.687500 0.500000
vt 0.687500 0.666667
vt 0.625000 0.833333
vt 0.687500 0.833333
vt 0.687500 -0.000000
vt 0.625000 0.166667
vt 0.687500 0.166667
vt 0.687500 0.333333
vt 0.750000 0.500000
vt 0.750000 0.666667
vt 0.750000 0.833333
vt 0.687500 1.000000
vt 0.750000 -0.000000
vt 0.750000 0.166667
vt 0.750000 0.333333
vt 0.812500 0.500000
vt 0.812500 0.666667
vt 0.812500 0.833333
vt 0.750000 1.000000
vt 0.812500 0.166667
vt 0.812500 0.333333
vt 0.875000 0.666667
vt 0.875000 1.000000
vt 0.812500 1.000000
vt 0.812500 -0.000000
vt 0.875000 0.166667
vt 0.875000 0.333333
vt 0.937500 0.500000
vt 0.875000 0.500000
vt 0.937500 0.666667
vt 0.875000 0.833333
vt 0.937500 0.833333
vt 0.937500 -0.000000
vt 0.875000 -0.000000
vt 0.937500 0.333333
vt 1.000000 0.500000
vt 1.000000 0.666667
vt 1.000000 0.833333
vt 0.937500 1.000000
vt 1.000000 -0.000000
vt 0.937500 0.166667
vt 1.000000 0.166667
vt 1.000000 0.333333
vt 0.062500 0.500000
vt 0.000000 0.666667
vt 0.000000 0.500000
vt 0.062500 0.666667
vt 0.000000 0.833333
vt 0.062500 0.833333
vt 0.000000 1.000000
vt 0.062500 -0.000000
vt 0.000000 0.166667
vt 0.000000 -0.000000
vt 0.062500 0.166667
vt 0.000000 0.333333
vt 0.062500 0.333333
vt 0.125000 0.500000
vt 0.125000 0.666667
vt 0.125000 0.833333
vt 0.062500 1.000000
vt 0.125000 -0.000000
vt 0.125000 0.166667
vt 0.187500 0.500000
vt 0.187500 0.666667
vt 0.187500 0.833333
vt 0.125000 1.000000
vt 0.187500 -0.000000
vt 0.187500 0.166667
vt 0.125000 0.333333
vt 0.250000 0.500000
vt 0.250000 0.666667
vt 0.250000 0.833333
vt 0.187500 1.000000
vt 0.250000 -0.000000
vt 0.250000 0.166667
vt 0.187500 0.333333
vt 0.250000 0.333333
vt 0.312500 0.500000
vt 0.312500 0.666667
vt 0.312500 1.000000
vt 0.250000 1.000000
vt 0.312500 -0.000000
vt 0.312500 0.166667
vt 0.312500 0.333333
vt 0.375000 0.500000
vt 0.375000 0.833333
vt 0.312500 0.833333
vt 0.375000 -0.000000
vt 0.375000 0.166667
vt 0.375000 0.333333
vt 0.437500 0.666667
vt 0.375000 0.666667
vt 0.437500 0.833333
vt 0.375000 1.000000
vt 0.437500 0.166667
vt 0.437500 0.333333
vt 0.437500 0.500000
vt 0.437500 1.000000
vt 0.437500 -0.000000
vt 1.000000 1.000000
vn -0.4927 -0.8535 0.1698
vn -1.0000 0.0000 0.0000
vn -0.4927 0.8535 -0.1698
vn 0.4927 0.8535 -0.1698
vn 1.0000 0.0000 0.0000
vn 0.4927 -0.8535 0.1698
vn -0.4927 -0.7235 0.4834
vn -0.4927 0.7235 -0.4834
vn 0.4927 0.7235 -0.4834
vn 0.4927 -0.7235 0.4834
vn -0.4927 -0.4834 0.7235
vn -0.4927 0.4834 -0.7235
vn 0.4927 0.4834 -0.7235
vn 0.4927 -0.4834 0.7235
vn -0.4927 -0.1698 0.8535
vn -0.4927 0.1698 -0.8535
vn 0.4927 0.1698 -0.8535
vn 0.4927 -0.1698 0.8535
vn -0.4927 0.1698 0.8535
vn -0.4927 -0.1698 -0.8535
vn 0.4927 -0.1698 -0.8535
vn 0.4927 0.1698 0.8535
vn -0.4927 0.4834 0.7235
vn -0.4927 -0.4834 -0.7235
vn 0.4927 -0.4834 -0.7235
vn 0.4927 0.4834 0.7235
vn -0.4927 0.7235 0.4834
vn -0.4927 -0.7235 -0.4834
vn 0.4927 -0.7235 -0.4834
vn 0.4927 0.7235 0.4834
vn -0.4927 0.8535 0.1698
vn -0.4927 -0.8535 -0.1698
vn 0.4927 -0.8535 -0.1698
vn 0.4927 0.8535 0.1698
usemtl None
s off
f 1/1/1 8/2/1 2/3/1
f 8/2/2 3/4/2 2/3/2
f 9/5/3 4/6/3 3/4/3
f 10/7/4 5/8/4 4/9/4
f 11/10/5 6/11/5 5/8/5
f 12/12/6 1/1/6 6/11/6
f 13/13/7 8/2/7 7/14/7
f 14/15/2 9/5/2 8/2/2
f 9/5/8 16/16/8 10/17/8
f 16/18/9 11/10/9 10/7/9
f 11/10/5 18/19/5 12/12/5
f 18/19/10 7/14/10 12/12/10
f 19/20/11 14/15/11 13/13/11
f 20/21/2 15/22/2 14/15/2
f 21/23/12 16/16/12 15/22/12
f 22/24/13 17/25/13 16/18/13
f 23/26/5 18/19/5 17/25/5
f 24/27/14 13/13/14 18/19/14
f 25/28/15 20/21/15 19/20/15
f 26/29/2 21/23/2 20/21/2
f 27/30/16 22/31/16 21/23/16
f 28/32/17 23/26/17 22/24/17
f 29/33/5 24/27/5 23/26/5
f 30/34/18 19/20/18 24/27/18
f 31/35/19 26/29/19 25/28/19
f 32/36/2 27/30/2 26/29/2
f 33/37/20 28/38/20 27/30/20
f 28/32/21 35/39/21 29/33/21
f 35/39/5 30/34/5 29/33/5
f 36/40/22 25/28/22 30/34/22
f 31/35/23 38/41/23 32/36/23
f 38/41/2 33/37/2 32/36/2
f 33/37/24 40/42/24 34/43/24
f 34/44/25 41/45/25 35/39/25
f 41/45/5 36/40/5 35/39/5
f 42/46/26 31/35/26 36/40/26
f 43/47/27 38/41/27 37/48/27
f 44/49/2 39/50/2 38/41/2
f 45/51/28 40/42/28 39/50/28
f 46/52/29 41/45/29 40/53/29
f 41/45/5 48/54/5 42/46/5
f 48/54/30 37/48/30 42/46/30
f 49/55/31 44/49/31 43/47/31
f 50/56/2 45/51/2 44/49/2
f 51/57/32 46/58/32 45/51/32
f 52/59/33 47/60/33 46/52/33
f 53/61/5 48/54/5 47/60/5
f 54/62/34 43/47/34 48/54/34
f 55/63/3 50/64/3 49/65/3
f 56/66/2 51/67/2 50/64/2
f 57/68/1 52/69/1 51/67/1
f 58/70/6 53/71/6 52/72/6
f 59/73/5 54/74/5 53/71/5
f 60/75/4 49/65/4 54/74/4
f 61/76/8 56/66/8 55/63/8
f 62/77/2 57/68/2 56/66/2
f 63/78/7 58/79/7 57/68/7
f 64/80/10 59/73/10 58/70/10
f 65/81/5 60/75/5 59/73/5
f 60/75/9 61/76/9 55/63/9
f 67/82/12 62/77/12 61/76/12
f 68/83/2 63/78/2 62/77/2
f 69/84/11 64/85/11 63/78/11
f 70/86/14 65/81/14 64/80/14
f 71/87/5 66/88/5 65/81/5
f 66/88/13 67/82/13 61/76/13
f 73/89/16 68/83/16 67/82/16
f 74/90/2 69/84/2 68/83/2
f 75/91/15 70/92/15 69/84/15
f 76/93/18 71/87/18 70/86/18
f 77/94/5 72/95/5 71/87/5
f 78/96/17 67/82/17 72/95/17
f 79/97/20 74/90/20 73/89/20
f 80/98/2 75/91/2 74/90/2
f 75/91/19 82/99/19 76/100/19
f 82/101/22 77/94/22 76/93/22
f 83/102/5 78/96/5 77/94/5
f 84/103/21 73/89/21 78/96/21
f 85/104/24 80/98/24 79/97/24
f 80/98/2 87/105/2 81/106/2
f 87/105/23 82/99/23 81/106/23
f 88/107/26 83/102/26 82/101/26
f 89/108/5 84/103/5 83/102/5
f 90/109/25 79/97/25 84/103/25
f 85/104/28 92/110/28 86/111/28
f 86/111/2 93/112/2 87/105/2
f 93/112/27 88/113/27 87/105/27
f 88/107/30 95/114/30 89/108/30
f 95/114/5 90/109/5 89/108/5
f 96/115/29 85/104/29 90/109/29
f 1/1/32 92/110/32 91/116/32
f 2/3/2 93/112/2 92/110/2
f 3/4/31 94/117/31 93/112/31
f 4/9/34 95/114/34 94/118/34
f 5/8/5 96/115/5 95/114/5
f 96/115/33 1/1/33 91/116/33
f 1/1/1 7/14/1 8/2/1
f 8/2/2 9/5/2 3/4/2
f 9/5/3 10/17/3 4/6/3
f 10/7/4 11/10/4 5/8/4
f 11/10/5 12/12/5 6/11/5
f 12/12/6 7/14/6 1/1/6
f 13/13/7 14/15/7 8/2/7
f 14/15/2 15/22/2 9/5/2
f 9/5/8 15/22/8 16/16/8
f 16/18/9 17/25/9 11/10/9
f 11/10/5 17/25/5 18/19/5
f 18/19/10 13/13/10 7/14/10
f 19/20/11 20/21/11 14/15/11
f 20/21/2 21/23/2 15/22/2
f 21/23/12 22/31/12 16/16/12
f 22/24/13 23/26/13 17/25/13
f 23/26/5 24/27/5 18/19/5
f 24/27/14 19/20/14 13/13/14
f 25/28/15 26/29/15 20/21/15
f 26/29/2 27/30/2 21/23/2
f 27/30/16 28/38/16 22/31/16
f 28/32/17 29/33/17 23/26/17
f 29/33/5 30/34/5 24/27/5
f 30/34/18 25/28/18 19/20/18
f 31/35/19 32/36/19 26/29/19
f 32/36/2 33/37/2 27/30/2
f 33/37/20 34/43/20 28/38/20
f 28/32/21 34/44/21 35/39/21
f 35/39/5 36/40/5 30/34/5
f 36/40/22 31/35/22 25/28/22
f 31/35/23 37/48/23 38/41/23
f 38/41/2 39/50/2 33/37/2
f 33/37/24 39/50/24 40/42/24
f 34/44/25 40/53/25 41/45/25
f 41/45/5 42/46/5 36/40/5
f 42/46/26 37/48/26 31/35/26
f 43/47/27 44/49/27 38/41/27
f 44/49/2 45/51/2 39/50/2
f 45/51/28 46/58/28 40/42/28
f 46/52/29 47/60/29 41/45/29
f 41/45/5 47/60/5 48/54/5
f 48/54/30 43/47/30 37/48/30
f 49/55/31 50/56/31 44/49/31
f 50/56/2 51/57/2 45/51/2
f 51/57/32 52/119/32 46/58/32
f 52/59/33 53/61/33 47/60/33
f 53/61/5 54/62/5 48/54/5
f 54/62/34 49/55/34 43/47/34
f 55/63/3 56/66/3 50/64/3
f 56/66/2 57/68/2 51/67/2
f 57/68/1 58/79/1 52/69/1
f 58/70/6 59/73/6 53/71/6
f 59/73/5 60/75/5 54/74/5
f 60/75/4 55/63/4 49/65/4
f 61/76/8 62/77/8 56/66/8
f 62/77/2 63/78/2 57/68/2
f 63/78/7 64/85/7 58/79/7
f 64/80/10 65/81/10 59/73/10
f 65/81/5 66/88/5 60/75/5
f 60/75/9 66/88/9 61/76/9
f 67/82/12 68/83/12 62/77/12
f 68/83/2 69/84/2 63/78/2
f 69/84/11 70/92/11 64/85/11
f 70/86/14 71/87/14 65/81/14
f 71/87/5 72/95/5 66/88/5
f 66/88/13 72/95/13 67/82/13
f 73/89/16 74/90/16 68/83/16
f 74/90/2 75/91/2 69/84/2
f 75/91/15 76/100/15 70/92/15
f 76/93/18 77/94/18 71/87/18
f 77/94/5 78/96/5 72/95/5
f 78/96/17 73/89/17 67/82/17
f 79/97/20 80/98/20 74/90/20
f 80/98/2 81/106/2 75/91/2
f 75/91/19 81/106/19 82/99/19
f 82/101/22 83/102/22 77/94/22
f 83/102/5 84/103/5 78/96/5
f 84/103/21 79/97/21 73/89/21
f 85/104/24 86/111/24 80/98/24
f 80/98/2 86/111/2 87/105/2
f 87/105/23 88/113/23 82/99/23
f 88/107/26 89/108/26 83/102/26
f 89/108/5 90/109/5 84/103/5
f 90/109/25 85/104/25 79/97/25
f 85/104/28 91/116/28 92/110/28
f 86/111/2 92/110/2 93/112/2
f 93/112/27 94/117/27 88/113/27
f 88/107/30 94/118/30 95/114/30
f 95/114/5 96/115/5 90/109/5
f 96/115/29 91/116/29 85/104/29
f 1/1/32 2/3/32 92/110/32
f 2/3/2 3/4/2 93/112/2
f 3/4/31 4/6/31 94/117/31
f 4/9/34 5/8/34 95/114/34
f 5/8/5 6/11/5 96/115/5
f 96/115/33 6/11/33 1/1/33
